  0
SECTION
  2
HEADER
  9
$ACADVER
  1
AC1018
  9
$HANDSEED
  5
FFFFFFFF
  9
$ANGBASE
  50
0.0
  9
$ANGDIR
  70
1
  9
$MEASUREMENT
  70
0
  9
$INSUNITS
  70
1
  0
ENDSEC
  0
SECTION
  2
TABLES
  0
TABLE
  2
APPID
  5
1
330
0
100
AcDbSymbolTable
 70
1
  0
APPID
  5
2
330
1
100
AcDbSymbolTableRecord
100
AcDbRegAppTableRecord
  2
ACAD
 70
0
  0
ENDTAB
  0
TABLE
  2
LTYPE
  5
3
330
0
100
AcDbSymbolTable
 70
6
  0
LTYPE
  5
4
330
3
100
AcDbSymbolTableRecord
100
AcDbLinetypeTableRecord
  2
ByBlock
 70
0
  3

 72
65
 73
0
 40
0
  0
LTYPE
  5
5
330
3
100
AcDbSymbolTableRecord
100
AcDbLinetypeTableRecord
  2
ByLayer
 70
0
  3

 72
65
 73
0
 40
0
  0
LTYPE
  5
6
330
3
100
AcDbSymbolTableRecord
100
AcDbLinetypeTableRecord
  2
CONTINUOUS
 70
0
  3
Solid line
 72
65
 73
0
 40
0
  0
LTYPE
  5
7
330
3
100
AcDbSymbolTableRecord
100
AcDbLinetypeTableRecord
  2
DASHDOT
 70
0
  3
Dash Dot ____ _ ____ _
 72
65
 73
4
 40
2
 49
1.25
 74
0
 49
-0.25
 74
0
 49
0.25
 74
0
 49
-0.25
 74
0
  0
LTYPE
  5
8
330
3
100
AcDbSymbolTableRecord
100
AcDbLinetypeTableRecord
  2
DASHED
 70
0
  3
Dashed __ __ __ __ __
 72
65
 73
2
 40
0.75
 49
0.5
 74
0
 49
-0.25
 74
0
  0
LTYPE
  5
9
330
3
100
AcDbSymbolTableRecord
100
AcDbLinetypeTableRecord
  2
DOTTED
 70
0
  3
Dotted .  .  .  .
 72
65
 73
2
 40
0.2
 49
0.0
 74
0
 49
-0.2
 74
0
  0
ENDTAB
  0
TABLE
  2
STYLE
  5
A
330
0
100
AcDbSymbolTable
 70
4
  0
STYLE
  5
B
330
A
100
AcDbSymbolTableRecord
100
AcDbTextStyleTableRecord
  2
KICAD
 70
0
 40
0
 41
1
 42
1
 50
0
 71
0
  3
isocp.shx
  0
STYLE
  5
C
330
A
100
AcDbSymbolTableRecord
100
AcDbTextStyleTableRecord
  2
KICADB
 70
0
 40
0
 41
1
 42
1
 50
0
 71
0
  3
isocp.shx
  0
STYLE
  5
D
330
A
100
AcDbSymbolTableRecord
100
AcDbTextStyleTableRecord
  2
KICADI
 70
0
 40
0
 41
1
 42
1
 50
15
 71
0
  3
isocp.shx
  0
STYLE
  5
E
330
A
100
AcDbSymbolTableRecord
100
AcDbTextStyleTableRecord
  2
KICADBI
 70
0
 40
0
 41
1
 42
1
 50
15
 71
0
  3
isocp.shx
  0
ENDTAB
  0
TABLE
  2
LAYER
  5
F
330
0
100
AcDbSymbolTable
 70
2
  0
LAYER
  5
12
330
F
100
AcDbSymbolTableRecord
100
AcDbLayerTableRecord
  2
0
 70
0
 62
7
  6
CONTINUOUS
390
10
  0
LAYER
  5
13
330
F
100
AcDbSymbolTableRecord
100
AcDbLayerTableRecord
  2
Edge.Cuts
 70
0
 62
254
420
13685453
  6
CONTINUOUS
390
10
  0
ENDTAB
  0
TABLE
  2
VPORT
  5
14
330
0
100
AcDbSymbolTable
 70
0
  0
ENDTAB
  0
TABLE
  2
VIEW
  5
15
330
0
100
AcDbSymbolTable
 70
0
  0
ENDTAB
  0
TABLE
  2
UCS
  5
16
330
0
100
AcDbSymbolTable
 70
0
  0
ENDTAB
  0
TABLE
  2
DIMSTYLE
  5
17
330
0
100
AcDbSymbolTable
 70
1
100
AcDbDimStyleTable
 71
0
  0
DIMSTYLE
105
18
330
17
100
AcDbSymbolTableRecord
100
AcDbDimStyleTableRecord
  2
Standard
 70
0
  0
ENDTAB
  0
TABLE
  2
BLOCK_RECORD
  5
19
330
0
100
AcDbSymbolTable
 70
3
  0
BLOCK_RECORD
  5
1A
330
19
100
AcDbSymbolTableRecord
100
AcDbBlockTableRecord
  2
*Model_Space
340
1D
 70
0
280
1
281
0
  0
BLOCK_RECORD
  5
1B
330
19
100
AcDbSymbolTableRecord
100
AcDbBlockTableRecord
  2
*Paper_Space
340
1E
 70
0
280
1
281
0
  0
BLOCK_RECORD
  5
1C
330
19
100
AcDbSymbolTableRecord
100
AcDbBlockTableRecord
  2
*Paper_Space0
340
1F
 70
0
280
1
281
0
  0
ENDTAB
  0
ENDSEC
  0
SECTION
  2
BLOCKS
  0
BLOCK
  5
23
330
1A
100
AcDbEntity
  8
0
100
AcDbBlockBegin
  2
*Model_Space
 70
0
 10
0.0
 20
0.0
 30
0.0
  3
*Model_Space
  1

  0
ENDBLK
  5
22
330
1A
100
AcDbEntity
  8
0
100
AcDbBlockEnd
  0
BLOCK
  5
25
330
1B
100
AcDbEntity
 67
1
  8
0
100
AcDbBlockBegin
  2
*Paper_Space
 70
0
 10
0.0
 20
0.0
 30
0.0
  3
*Paper_Space
  1

  0
ENDBLK
  5
24
330
1B
100
AcDbEntity
 67
1
  8
0
100
AcDbBlockEnd
  0
BLOCK
  5
27
330
1C
100
AcDbEntity
 67
1
  8
0
100
AcDbBlockBegin
  2
*Paper_Space0
 70
0
 10
0.0
 20
0.0
 30
0.0
  3
*Paper_Space0
  1

  0
ENDBLK
  5
26
330
1C
100
AcDbEntity
 67
1
  8
0
100
AcDbBlockEnd
  0
ENDSEC
  0
SECTION
  2
ENTITIES
  0
LINE
  5
28
330
1A
100
AcDbEntity
  8
Edge.Cuts
  6
CONTINUOUS
100
AcDbLine
 10
6.84375
 20
-0.8427657480314961
 30
0
 11
6.8551689370078739
 21
-0.8434564566929134
 31
0
  0
LINE
  5
29
330
1A
100
AcDbEntity
  8
Edge.Cuts
  6
CONTINUOUS
100
AcDbLine
 10
6.8551689370078739
 20
-0.8434564566929134
 30
0
 11
6.8664213779527561
 21
-0.8455185433070866
 31
0
  0
LINE
  5
2A
330
1A
100
AcDbEntity
  8
Edge.Cuts
  6
CONTINUOUS
100
AcDbLine
 10
6.8664213779527561
 20
-0.8455185433070866
 30
0
 11
6.8773432283464562
 21
-0.8489219291338582
 31
0
  0
LINE
  5
2B
330
1A
100
AcDbEntity
  8
Edge.Cuts
  6
CONTINUOUS
100
AcDbLine
 10
6.8773432283464562
 20
-0.8489219291338582
 30
0
 11
6.8877751968503933
 21
-0.853616968503937
 31
0
  0
LINE
  5
2C
330
1A
100
AcDbEntity
  8
Edge.Cuts
  6
CONTINUOUS
100
AcDbLine
 10
6.8877751968503933
 20
-0.853616968503937
 30
0
 11
6.8975651968503939
 21
-0.8595352362204725
 31
0
  0
LINE
  5
2D
330
1A
100
AcDbEntity
  8
Edge.Cuts
  6
CONTINUOUS
100
AcDbLine
 10
6.8975651968503939
 20
-0.8595352362204725
 30
0
 11
6.9065704330708657
 21
-0.8665903937007874
 31
0
  0
LINE
  5
2E
330
1A
100
AcDbEntity
  8
Edge.Cuts
  6
CONTINUOUS
100
AcDbLine
 10
6.9065704330708657
 20
-0.8665903937007874
 30
0
 11
6.9146596062992121
 21
-0.8746795669291338
 31
0
  0
LINE
  5
2F
330
1A
100
AcDbEntity
  8
Edge.Cuts
  6
CONTINUOUS
100
AcDbLine
 10
6.9146596062992121
 20
-0.8746795669291338
 30
0
 11
6.9217147637795273
 21
-0.8836848031496063
 31
0
  0
LINE
  5
30
330
1A
100
AcDbEntity
  8
Edge.Cuts
  6
CONTINUOUS
100
AcDbLine
 10
6.9217147637795273
 20
-0.8836848031496063
 30
0
 11
6.9276330314960628
 21
-0.8934748031496063
 31
0
  0
LINE
  5
31
330
1A
100
AcDbEntity
  8
Edge.Cuts
  6
CONTINUOUS
100
AcDbLine
 10
6.9276330314960628
 20
-0.8934748031496063
 30
0
 11
6.9323280708661414
 21
-0.9039067716535433
 31
0
  0
LINE
  5
32
330
1A
100
AcDbEntity
  8
Edge.Cuts
  6
CONTINUOUS
100
AcDbLine
 10
6.9323280708661414
 20
-0.9039067716535433
 30
0
 11
6.9357314566929134
 21
-0.914828622047244
 31
0
  0
LINE
  5
33
330
1A
100
AcDbEntity
  8
Edge.Cuts
  6
CONTINUOUS
100
AcDbLine
 10
6.9357314566929134
 20
-0.914828622047244
 30
0
 11
6.9377935433070865
 21
-0.926081062992126
 31
0
  0
LINE
  5
34
330
1A
100
AcDbEntity
  8
Edge.Cuts
  6
CONTINUOUS
100
AcDbLine
 10
6.9377935433070865
 20
-0.926081062992126
 30
0
 11
6.9384842519685037
 21
-0.9375
 31
0
  0
LINE
  5
35
330
1A
100
AcDbEntity
  8
Edge.Cuts
  6
CONTINUOUS
100
AcDbLine
 10
6.9384842519685037
 20
-0.9375
 30
0
 11
6.9384842519685037
 21
-3.09375
 31
0
  0
LINE
  5
36
330
1A
100
AcDbEntity
  8
Edge.Cuts
  6
CONTINUOUS
100
AcDbLine
 10
6.9384842519685037
 20
-3.09375
 30
0
 11
6.9377935433070865
 21
-3.1051689370078739
 31
0
  0
LINE
  5
37
330
1A
100
AcDbEntity
  8
Edge.Cuts
  6
CONTINUOUS
100
AcDbLine
 10
6.9377935433070865
 20
-3.1051689370078739
 30
0
 11
6.9357314566929134
 21
-3.1164213779527556
 31
0
  0
LINE
  5
38
330
1A
100
AcDbEntity
  8
Edge.Cuts
  6
CONTINUOUS
100
AcDbLine
 10
6.9357314566929134
 20
-3.1164213779527556
 30
0
 11
6.9323280708661414
 21
-3.1273432283464566
 31
0
  0
LINE
  5
39
330
1A
100
AcDbEntity
  8
Edge.Cuts
  6
CONTINUOUS
100
AcDbLine
 10
6.9323280708661414
 20
-3.1273432283464566
 30
0
 11
6.9276330314960628
 21
-3.1377751968503937
 31
0
  0
LINE
  5
3A
330
1A
100
AcDbEntity
  8
Edge.Cuts
  6
CONTINUOUS
100
AcDbLine
 10
6.9276330314960628
 20
-3.1377751968503937
 30
0
 11
6.9217147637795273
 21
-3.1475651968503935
 31
0
  0
LINE
  5
3B
330
1A
100
AcDbEntity
  8
Edge.Cuts
  6
CONTINUOUS
100
AcDbLine
 10
6.9217147637795273
 20
-3.1475651968503935
 30
0
 11
6.9146596062992121
 21
-3.1565704330708662
 31
0
  0
LINE
  5
3C
330
1A
100
AcDbEntity
  8
Edge.Cuts
  6
CONTINUOUS
100
AcDbLine
 10
6.9146596062992121
 20
-3.1565704330708662
 30
0
 11
6.9065704330708657
 21
-3.1646596062992125
 31
0
  0
LINE
  5
3D
330
1A
100
AcDbEntity
  8
Edge.Cuts
  6
CONTINUOUS
100
AcDbLine
 10
6.9065704330708657
 20
-3.1646596062992125
 30
0
 11
6.8975651968503939
 21
-3.1717147637795273
 31
0
  0
LINE
  5
3E
330
1A
100
AcDbEntity
  8
Edge.Cuts
  6
CONTINUOUS
100
AcDbLine
 10
6.8975651968503939
 20
-3.1717147637795273
 30
0
 11
6.8877751968503933
 21
-3.1776330314960628
 31
0
  0
LINE
  5
3F
330
1A
100
AcDbEntity
  8
Edge.Cuts
  6
CONTINUOUS
100
AcDbLine
 10
6.8877751968503933
 20
-3.1776330314960628
 30
0
 11
6.8773432283464562
 21
-3.1823280708661414
 31
0
  0
LINE
  5
40
330
1A
100
AcDbEntity
  8
Edge.Cuts
  6
CONTINUOUS
100
AcDbLine
 10
6.8773432283464562
 20
-3.1823280708661414
 30
0
 11
6.8664213779527561
 21
-3.1857314566929134
 31
0
  0
LINE
  5
41
330
1A
100
AcDbEntity
  8
Edge.Cuts
  6
CONTINUOUS
100
AcDbLine
 10
6.8664213779527561
 20
-3.1857314566929134
 30
0
 11
6.8551689370078739
 21
-3.1877935433070865
 31
0
  0
LINE
  5
42
330
1A
100
AcDbEntity
  8
Edge.Cuts
  6
CONTINUOUS
100
AcDbLine
 10
6.8551689370078739
 20
-3.1877935433070865
 30
0
 11
6.84375
 21
-3.1884842519685037
 31
0
  0
LINE
  5
43
330
1A
100
AcDbEntity
  8
Edge.Cuts
  6
CONTINUOUS
100
AcDbLine
 10
6.84375
 20
-3.1884842519685037
 30
0
 11
2.53125
 21
-3.1884842519685037
 31
0
  0
LINE
  5
44
330
1A
100
AcDbEntity
  8
Edge.Cuts
  6
CONTINUOUS
100
AcDbLine
 10
2.53125
 20
-3.1884842519685037
 30
0
 11
2.5198310629921261
 21
-3.1877935433070865
 31
0
  0
LINE
  5
45
330
1A
100
AcDbEntity
  8
Edge.Cuts
  6
CONTINUOUS
100
AcDbLine
 10
2.5198310629921261
 20
-3.1877935433070865
 30
0
 11
2.5085786220472439
 21
-3.1857314566929134
 31
0
  0
LINE
  5
46
330
1A
100
AcDbEntity
  8
Edge.Cuts
  6
CONTINUOUS
100
AcDbLine
 10
2.5085786220472439
 20
-3.1857314566929134
 30
0
 11
2.4976567716535434
 21
-3.1823280708661414
 31
0
  0
LINE
  5
47
330
1A
100
AcDbEntity
  8
Edge.Cuts
  6
CONTINUOUS
100
AcDbLine
 10
2.4976567716535434
 20
-3.1823280708661414
 30
0
 11
2.4872248031496063
 21
-3.1776330314960628
 31
0
  0
LINE
  5
48
330
1A
100
AcDbEntity
  8
Edge.Cuts
  6
CONTINUOUS
100
AcDbLine
 10
2.4872248031496063
 20
-3.1776330314960628
 30
0
 11
2.4774348031496061
 21
-3.1717147637795273
 31
0
  0
LINE
  5
49
330
1A
100
AcDbEntity
  8
Edge.Cuts
  6
CONTINUOUS
100
AcDbLine
 10
2.4774348031496061
 20
-3.1717147637795273
 30
0
 11
2.4684295669291338
 21
-3.1646596062992125
 31
0
  0
LINE
  5
4A
330
1A
100
AcDbEntity
  8
Edge.Cuts
  6
CONTINUOUS
100
AcDbLine
 10
2.4684295669291338
 20
-3.1646596062992125
 30
0
 11
2.4603403937007875
 21
-3.1565704330708662
 31
0
  0
LINE
  5
4B
330
1A
100
AcDbEntity
  8
Edge.Cuts
  6
CONTINUOUS
100
AcDbLine
 10
2.4603403937007875
 20
-3.1565704330708662
 30
0
 11
2.4532852362204722
 21
-3.1475651968503935
 31
0
  0
LINE
  5
4C
330
1A
100
AcDbEntity
  8
Edge.Cuts
  6
CONTINUOUS
100
AcDbLine
 10
2.4532852362204722
 20
-3.1475651968503935
 30
0
 11
2.4473669685039368
 21
-3.1377751968503937
 31
0
  0
LINE
  5
4D
330
1A
100
AcDbEntity
  8
Edge.Cuts
  6
CONTINUOUS
100
AcDbLine
 10
2.4473669685039368
 20
-3.1377751968503937
 30
0
 11
2.4426719291338581
 21
-3.1273432283464566
 31
0
  0
LINE
  5
4E
330
1A
100
AcDbEntity
  8
Edge.Cuts
  6
CONTINUOUS
100
AcDbLine
 10
2.4426719291338581
 20
-3.1273432283464566
 30
0
 11
2.4392685433070866
 21
-3.1164213779527556
 31
0
  0
LINE
  5
4F
330
1A
100
AcDbEntity
  8
Edge.Cuts
  6
CONTINUOUS
100
AcDbLine
 10
2.4392685433070866
 20
-3.1164213779527556
 30
0
 11
2.4372064566929135
 21
-3.1051689370078739
 31
0
  0
LINE
  5
50
330
1A
100
AcDbEntity
  8
Edge.Cuts
  6
CONTINUOUS
100
AcDbLine
 10
2.4372064566929135
 20
-3.1051689370078739
 30
0
 11
2.4365157480314958
 21
-3.09375
 31
0
  0
LINE
  5
51
330
1A
100
AcDbEntity
  8
Edge.Cuts
  6
CONTINUOUS
100
AcDbLine
 10
2.4365157480314958
 20
-3.09375
 30
0
 11
2.4365157480314958
 21
-1.40625
 31
0
  0
LINE
  5
52
330
1A
100
AcDbEntity
  8
Edge.Cuts
  6
CONTINUOUS
100
AcDbLine
 10
2.4365157480314958
 20
-1.40625
 30
0
 11
2.4365906692913386
 21
-1.4058733464566928
 31
0
  0
LINE
  5
53
330
1A
100
AcDbEntity
  8
Edge.Cuts
  6
CONTINUOUS
100
AcDbLine
 10
2.4365906692913386
 20
-1.4058733464566928
 30
0
 11
2.4368040157480313
 21
-1.4055540157480315
 31
0
  0
LINE
  5
54
330
1A
100
AcDbEntity
  8
Edge.Cuts
  6
CONTINUOUS
100
AcDbLine
 10
2.4368040157480313
 20
-1.4055540157480315
 30
0
 11
2.9993040157480313
 21
-0.8430540551181103
 31
0
  0
LINE
  5
55
330
1A
100
AcDbEntity
  8
Edge.Cuts
  6
CONTINUOUS
100
AcDbLine
 10
2.9993040157480313
 20
-0.8430540551181103
 30
0
 11
2.9996233464566928
 21
-0.8428406692913386
 31
0
  0
LINE
  5
56
330
1A
100
AcDbEntity
  8
Edge.Cuts
  6
CONTINUOUS
100
AcDbLine
 10
2.9996233464566928
 20
-0.8428406692913386
 30
0
 11
3.
 21
-0.8427657480314961
 31
0
  0
LINE
  5
57
330
1A
100
AcDbEntity
  8
Edge.Cuts
  6
CONTINUOUS
100
AcDbLine
 10
3.
 20
-0.8427657480314961
 30
0
 11
6.84375
 21
-0.8427657480314961
 31
0
  0
LINE
  5
58
330
1A
100
AcDbEntity
  8
Edge.Cuts
  6
CONTINUOUS
100
AcDbLine
 10
3.0004076771653541
 20
-0.8447342519685039
 30
0
 11
2.4384842519685037
 21
-1.4066576771653543
 31
0
  0
LINE
  5
59
330
1A
100
AcDbEntity
  8
Edge.Cuts
  6
CONTINUOUS
100
AcDbLine
 10
2.4384842519685037
 20
-1.4066576771653543
 30
0
 11
2.4384842519685037
 21
-3.09375
 31
0
  0
LINE
  5
5A
330
1A
100
AcDbEntity
  8
Edge.Cuts
  6
CONTINUOUS
100
AcDbLine
 10
2.4384842519685037
 20
-3.09375
 30
0
 11
2.4384842519685037
 21
-3.0993612992125983
 31
0
  0
LINE
  5
5B
330
1A
100
AcDbEntity
  8
Edge.Cuts
  6
CONTINUOUS
100
AcDbLine
 10
2.4384842519685037
 20
-3.0993612992125983
 30
0
 11
2.4398369685039372
 21
-3.1105020472440943
 31
0
  0
LINE
  5
5C
330
1A
100
AcDbEntity
  8
Edge.Cuts
  6
CONTINUOUS
100
AcDbLine
 10
2.4398369685039372
 20
-3.1105020472440943
 30
0
 11
2.4425227165354331
 21
-3.1213985433070865
 31
0
  0
LINE
  5
5D
330
1A
100
AcDbEntity
  8
Edge.Cuts
  6
CONTINUOUS
100
AcDbLine
 10
2.4425227165354331
 20
-3.1213985433070865
 30
0
 11
2.4465022834645667
 21
-3.1318918503937008
 31
0
  0
LINE
  5
5E
330
1A
100
AcDbEntity
  8
Edge.Cuts
  6
CONTINUOUS
100
AcDbLine
 10
2.4465022834645667
 20
-3.1318918503937008
 30
0
 11
2.4517177165354331
 21
-3.1418289370078738
 31
0
  0
LINE
  5
5F
330
1A
100
AcDbEntity
  8
Edge.Cuts
  6
CONTINUOUS
100
AcDbLine
 10
2.4517177165354331
 20
-3.1418289370078738
 30
0
 11
2.4580928740157479
 21
-3.1510649606299213
 31
0
  0
LINE
  5
60
330
1A
100
AcDbEntity
  8
Edge.Cuts
  6
CONTINUOUS
100
AcDbLine
 10
2.4580928740157479
 20
-3.1510649606299213
 30
0
 11
2.4655348031496063
 21
-3.1594651968503937
 31
0
  0
LINE
  5
61
330
1A
100
AcDbEntity
  8
Edge.Cuts
  6
CONTINUOUS
100
AcDbLine
 10
2.4655348031496063
 20
-3.1594651968503937
 30
0
 11
2.4739350393700787
 21
-3.1669071259842521
 31
0
  0
LINE
  5
62
330
1A
100
AcDbEntity
  8
Edge.Cuts
  6
CONTINUOUS
100
AcDbLine
 10
2.4739350393700787
 20
-3.1669071259842521
 30
0
 11
2.4831710629921258
 21
-3.1732822834645669
 31
0
  0
LINE
  5
63
330
1A
100
AcDbEntity
  8
Edge.Cuts
  6
CONTINUOUS
100
AcDbLine
 10
2.4831710629921258
 20
-3.1732822834645669
 30
0
 11
2.4931081496062992
 21
-3.1784977165354329
 31
0
  0
LINE
  5
64
330
1A
100
AcDbEntity
  8
Edge.Cuts
  6
CONTINUOUS
100
AcDbLine
 10
2.4931081496062992
 20
-3.1784977165354329
 30
0
 11
2.5036014566929135
 21
-3.1824772834645669
 31
0
  0
LINE
  5
65
330
1A
100
AcDbEntity
  8
Edge.Cuts
  6
CONTINUOUS
100
AcDbLine
 10
2.5036014566929135
 20
-3.1824772834645669
 30
0
 11
2.5144979527559053
 21
-3.1851630314960628
 31
0
  0
LINE
  5
66
330
1A
100
AcDbEntity
  8
Edge.Cuts
  6
CONTINUOUS
100
AcDbLine
 10
2.5144979527559053
 20
-3.1851630314960628
 30
0
 11
2.5256387007874017
 21
-3.1865157480314958
 31
0
  0
LINE
  5
67
330
1A
100
AcDbEntity
  8
Edge.Cuts
  6
CONTINUOUS
100
AcDbLine
 10
2.5256387007874017
 20
-3.1865157480314958
 30
0
 11
2.53125
 21
-3.1865157480314958
 31
0
  0
LINE
  5
68
330
1A
100
AcDbEntity
  8
Edge.Cuts
  6
CONTINUOUS
100
AcDbLine
 10
2.53125
 20
-3.1865157480314958
 30
0
 11
6.84375
 21
-3.1865157480314958
 31
0
  0
LINE
  5
69
330
1A
100
AcDbEntity
  8
Edge.Cuts
  6
CONTINUOUS
100
AcDbLine
 10
6.84375
 20
-3.1865157480314958
 30
0
 11
6.8493612992125978
 21
-3.1865157480314958
 31
0
  0
LINE
  5
6A
330
1A
100
AcDbEntity
  8
Edge.Cuts
  6
CONTINUOUS
100
AcDbLine
 10
6.8493612992125978
 20
-3.1865157480314958
 30
0
 11
6.8605020472440943
 21
-3.1851630314960628
 31
0
  0
LINE
  5
6B
330
1A
100
AcDbEntity
  8
Edge.Cuts
  6
CONTINUOUS
100
AcDbLine
 10
6.8605020472440943
 20
-3.1851630314960628
 30
0
 11
6.8713985433070865
 21
-3.1824772834645669
 31
0
  0
LINE
  5
6C
330
1A
100
AcDbEntity
  8
Edge.Cuts
  6
CONTINUOUS
100
AcDbLine
 10
6.8713985433070865
 20
-3.1824772834645669
 30
0
 11
6.8818918503937008
 21
-3.1784977165354329
 31
0
  0
LINE
  5
6D
330
1A
100
AcDbEntity
  8
Edge.Cuts
  6
CONTINUOUS
100
AcDbLine
 10
6.8818918503937008
 20
-3.1784977165354329
 30
0
 11
6.8918289370078742
 21
-3.1732822834645669
 31
0
  0
LINE
  5
6E
330
1A
100
AcDbEntity
  8
Edge.Cuts
  6
CONTINUOUS
100
AcDbLine
 10
6.8918289370078742
 20
-3.1732822834645669
 30
0
 11
6.9010649606299213
 21
-3.1669071259842521
 31
0
  0
LINE
  5
6F
330
1A
100
AcDbEntity
  8
Edge.Cuts
  6
CONTINUOUS
100
AcDbLine
 10
6.9010649606299213
 20
-3.1669071259842521
 30
0
 11
6.9094651968503937
 21
-3.1594651968503937
 31
0
  0
LINE
  5
70
330
1A
100
AcDbEntity
  8
Edge.Cuts
  6
CONTINUOUS
100
AcDbLine
 10
6.9094651968503937
 20
-3.1594651968503937
 30
0
 11
6.9169071259842516
 21
-3.1510649606299213
 31
0
  0
LINE
  5
71
330
1A
100
AcDbEntity
  8
Edge.Cuts
  6
CONTINUOUS
100
AcDbLine
 10
6.9169071259842516
 20
-3.1510649606299213
 30
0
 11
6.9232822834645669
 21
-3.1418289370078738
 31
0
  0
LINE
  5
72
330
1A
100
AcDbEntity
  8
Edge.Cuts
  6
CONTINUOUS
100
AcDbLine
 10
6.9232822834645669
 20
-3.1418289370078738
 30
0
 11
6.9284977165354329
 21
-3.1318918503937008
 31
0
  0
LINE
  5
73
330
1A
100
AcDbEntity
  8
Edge.Cuts
  6
CONTINUOUS
100
AcDbLine
 10
6.9284977165354329
 20
-3.1318918503937008
 30
0
 11
6.9324772834645669
 21
-3.1213985433070865
 31
0
  0
LINE
  5
74
330
1A
100
AcDbEntity
  8
Edge.Cuts
  6
CONTINUOUS
100
AcDbLine
 10
6.9324772834645669
 20
-3.1213985433070865
 30
0
 11
6.9351630314960628
 21
-3.1105020472440943
 31
0
  0
LINE
  5
75
330
1A
100
AcDbEntity
  8
Edge.Cuts
  6
CONTINUOUS
100
AcDbLine
 10
6.9351630314960628
 20
-3.1105020472440943
 30
0
 11
6.9365157480314963
 21
-3.0993612992125983
 31
0
  0
LINE
  5
76
330
1A
100
AcDbEntity
  8
Edge.Cuts
  6
CONTINUOUS
100
AcDbLine
 10
6.9365157480314963
 20
-3.0993612992125983
 30
0
 11
6.9365157480314963
 21
-3.09375
 31
0
  0
LINE
  5
77
330
1A
100
AcDbEntity
  8
Edge.Cuts
  6
CONTINUOUS
100
AcDbLine
 10
6.9365157480314963
 20
-3.09375
 30
0
 11
6.9365157480314963
 21
-0.9375
 31
0
  0
LINE
  5
78
330
1A
100
AcDbEntity
  8
Edge.Cuts
  6
CONTINUOUS
100
AcDbLine
 10
6.9365157480314963
 20
-0.9375
 30
0
 11
6.9365157480314963
 21
-0.9318887007874016
 31
0
  0
LINE
  5
79
330
1A
100
AcDbEntity
  8
Edge.Cuts
  6
CONTINUOUS
100
AcDbLine
 10
6.9365157480314963
 20
-0.9318887007874016
 30
0
 11
6.9351630314960628
 21
-0.9207479527559055
 31
0
  0
LINE
  5
7A
330
1A
100
AcDbEntity
  8
Edge.Cuts
  6
CONTINUOUS
100
AcDbLine
 10
6.9351630314960628
 20
-0.9207479527559055
 30
0
 11
6.9324772834645669
 21
-0.9098514566929133
 31
0
  0
LINE
  5
7B
330
1A
100
AcDbEntity
  8
Edge.Cuts
  6
CONTINUOUS
100
AcDbLine
 10
6.9324772834645669
 20
-0.9098514566929133
 30
0
 11
6.9284977165354329
 21
-0.8993581496062992
 31
0
  0
LINE
  5
7C
330
1A
100
AcDbEntity
  8
Edge.Cuts
  6
CONTINUOUS
100
AcDbLine
 10
6.9284977165354329
 20
-0.8993581496062992
 30
0
 11
6.9232822834645669
 21
-0.889421062992126
 31
0
  0
LINE
  5
7D
330
1A
100
AcDbEntity
  8
Edge.Cuts
  6
CONTINUOUS
100
AcDbLine
 10
6.9232822834645669
 20
-0.889421062992126
 30
0
 11
6.9169071259842516
 21
-0.8801850393700787
 31
0
  0
LINE
  5
7E
330
1A
100
AcDbEntity
  8
Edge.Cuts
  6
CONTINUOUS
100
AcDbLine
 10
6.9169071259842516
 20
-0.8801850393700787
 30
0
 11
6.9094651968503937
 21
-0.8717848031496063
 31
0
  0
LINE
  5
7F
330
1A
100
AcDbEntity
  8
Edge.Cuts
  6
CONTINUOUS
100
AcDbLine
 10
6.9094651968503937
 20
-0.8717848031496063
 30
0
 11
6.9010649606299213
 21
-0.8643428740157481
 31
0
  0
LINE
  5
80
330
1A
100
AcDbEntity
  8
Edge.Cuts
  6
CONTINUOUS
100
AcDbLine
 10
6.9010649606299213
 20
-0.8643428740157481
 30
0
 11
6.8918289370078742
 21
-0.857967716535433
 31
0
  0
LINE
  5
81
330
1A
100
AcDbEntity
  8
Edge.Cuts
  6
CONTINUOUS
100
AcDbLine
 10
6.8918289370078742
 20
-0.857967716535433
 30
0
 11
6.8818918503937008
 21
-0.8527522834645669
 31
0
  0
LINE
  5
82
330
1A
100
AcDbEntity
  8
Edge.Cuts
  6
CONTINUOUS
100
AcDbLine
 10
6.8818918503937008
 20
-0.8527522834645669
 30
0
 11
6.8713985433070865
 21
-0.8487727165354331
 31
0
  0
LINE
  5
83
330
1A
100
AcDbEntity
  8
Edge.Cuts
  6
CONTINUOUS
100
AcDbLine
 10
6.8713985433070865
 20
-0.8487727165354331
 30
0
 11
6.8605020472440943
 21
-0.8460869685039369
 31
0
  0
LINE
  5
84
330
1A
100
AcDbEntity
  8
Edge.Cuts
  6
CONTINUOUS
100
AcDbLine
 10
6.8605020472440943
 20
-0.8460869685039369
 30
0
 11
6.8493612992125978
 21
-0.8447342519685039
 31
0
  0
LINE
  5
85
330
1A
100
AcDbEntity
  8
Edge.Cuts
  6
CONTINUOUS
100
AcDbLine
 10
6.8493612992125978
 20
-0.8447342519685039
 30
0
 11
6.84375
 21
-0.8447342519685039
 31
0
  0
LINE
  5
86
330
1A
100
AcDbEntity
  8
Edge.Cuts
  6
CONTINUOUS
100
AcDbLine
 10
6.84375
 20
-0.8447342519685039
 30
0
 11
3.0004076771653541
 21
-0.8447342519685039
 31
0
  0
ENDSEC
  0
SECTION
  2
OBJECTS
  0
DICTIONARY
  5
20
330
0
100
AcDbDictionary
281
1
  3
ACAD_GROUP
350
87
  3
ACAD_LAYOUT
350
21
  3
ACAD_PLOTSTYLENAME
350
11
  0
DICTIONARY
  5
87
330
20
100
AcDbDictionary
281
1
  0
ACDBDICTIONARYWDFLT
  5
11
330
20
100
AcDbDictionary
281
1
  3
Normal
350
10
100
AcDbDictionaryWithDefault
340
10
  0
ACDBPLACEHOLDER
  5
10
330
11
  0
DICTIONARY
  5
21
330
20
100
AcDbDictionary
281
1
  3
Model
350
1D
  3
Layout1
350
1E
  3
Layout2
350
1F
  0
LAYOUT
  5
1D
330
21
100
AcDbPlotSettings
  1

  2
none_device
  4
A3
  6

 40
0.0
 41
0.0
 42
0.0
 43
0.0
 44
420.0
 45
297.0
 46
0.0
 47
0.0
 48
0.0
 49
0.0
140
0.0
141
0.0
142
1.0
143
1.0
 70
1024
 72
1
 73
0
 74
5
  7

 75
16
 76
0
 77
2
 78
300
147
1.0
148
0.0
149
0.0
100
AcDbLayout
  1
Model
 70
1
 71
0
 10
0.0
 20
0.0
 11
420.0
 21
297.0
 12
0.0
 22
0.0
 32
0.0
 14
1e+20
 24
1e+20
 34
1e+20
 15
-1e+20
 25
-1e+20
 35
-1e+20
146
0.0
 13
0.0
 23
0.0
 33
0.0
 16
1.0
 26
0.0
 36
0.0
 17
0.0
 27
1.0
 37
0.0
 76
0
330
1A
  0
LAYOUT
  5
1E
330
21
100
AcDbPlotSettings
  1

  2
none_device
  4
A3
  6

 40
0.0
 41
0.0
 42
0.0
 43
0.0
 44
420.0
 45
297.0
 46
0.0
 47
0.0
 48
0.0
 49
0.0
140
0.0
141
0.0
142
1.0
143
1.0
 70
0
 72
1
 73
0
 74
5
  7

 75
16
 76
0
 77
2
 78
300
147
1.0
148
0.0
149
0.0
100
AcDbLayout
  1
Layout1
 70
1
 71
1
 10
0.0
 20
0.0
 11
420.0
 21
297.0
 12
0.0
 22
0.0
 32
0.0
 14
1e+20
 24
1e+20
 34
1e+20
 15
-1e+20
 25
-1e+20
 35
-1e+20
146
0.0
 13
0.0
 23
0.0
 33
0.0
 16
1.0
 26
0.0
 36
0.0
 17
0.0
 27
1.0
 37
0.0
 76
0
330
1B
  0
LAYOUT
  5
1F
330
21
100
AcDbPlotSettings
  1

  2
none_device
  4
A3
  6

 40
0.0
 41
0.0
 42
0.0
 43
0.0
 44
420.0
 45
297.0
 46
0.0
 47
0.0
 48
0.0
 49
0.0
140
0.0
141
0.0
142
1.0
143
1.0
 70
0
 72
1
 73
0
 74
5
  7

 75
16
 76
0
 77
2
 78
300
147
1.0
148
0.0
149
0.0
100
AcDbLayout
  1
Layout2
 70
1
 71
2
 10
0.0
 20
0.0
 11
420.0
 21
297.0
 12
0.0
 22
0.0
 32
0.0
 14
1e+20
 24
1e+20
 34
1e+20
 15
-1e+20
 25
-1e+20
 35
-1e+20
146
0.0
 13
0.0
 23
0.0
 33
0.0
 16
1.0
 26
0.0
 36
0.0
 17
0.0
 27
1.0
 37
0.0
 76
0
330
1C
  0
ENDSEC
  0
EOF
